<svg width="87" height="31" viewBox="0 0 87 31" fill="none" xmlns="http://www.w3.org/2000/svg">
<path d="M0.92 30V-2.38419e-06H8.32C10.5867 -2.38419e-06 12.3867 0.679998 13.72 2.04C15.0533 3.38667 15.72 5.17333 15.72 7.4V10.6C15.72 11.76 15.5267 12.82 15.14 13.78C14.7667 14.7267 14.2267 15.52 13.52 16.16L13.4 14.04C14.24 14.6533 14.9 15.4733 15.38 16.5C15.8733 17.5267 16.12 18.6933 16.12 20V22.6C16.12 24.8133 15.4533 26.6 14.12 27.96C12.7867 29.32 10.9867 30 8.72 30H0.92ZM6.32 24.6H8.72C9.36 24.6 9.85333 24.42 10.2 24.06C10.5467 23.6867 10.72 23.2 10.72 22.6V20C10.72 19.4 10.5467 18.92 10.2 18.56C9.85333 18.1867 9.36 18 8.72 18H6.32V24.6ZM6.32 12.6H8.32C8.96 12.6 9.45333 12.42 9.8 12.06C10.1467 11.6867 10.32 11.2 10.32 10.6V7.4C10.32 6.8 10.1467 6.32 9.8 5.96C9.45333 5.58667 8.96 5.4 8.32 5.4H6.32V12.6ZM26.8372 30.52C25.4105 30.52 24.1705 30.2133 23.1172 29.6C22.0772 28.9733 21.2705 28.1067 20.6972 27C20.1239 25.8933 19.8372 24.6 19.8372 23.12V14.88C19.8372 13.4 20.1239 12.1067 20.6972 11C21.2705 9.88 22.0772 9.01333 23.1172 8.4C24.1705 7.78667 25.4105 7.48 26.8372 7.48C28.9839 7.48 30.6839 8.16 31.9372 9.52C33.2039 10.8667 33.8372 12.6533 33.8372 14.88V23.12C33.8372 25.3333 33.2039 27.12 31.9372 28.48C30.6839 29.84 28.9839 30.52 26.8372 30.52ZM26.8372 25.52C27.4772 25.52 27.9705 25.34 28.3172 24.98C28.6639 24.6067 28.8372 24.12 28.8372 23.52V14.48C28.8372 13.88 28.6639 13.4 28.3172 13.04C27.9705 12.6667 27.4772 12.48 26.8372 12.48C26.1972 12.48 25.7039 12.6667 25.3572 13.04C25.0105 13.4 24.8372 13.88 24.8372 14.48V23.52C24.8372 24.12 25.0105 24.6067 25.3572 24.98C25.7039 25.34 26.1972 25.52 26.8372 25.52ZM44.2591 30.52C42.8324 30.52 41.5924 30.2133 40.5391 29.6C39.4991 28.9733 38.6924 28.1067 38.1191 27C37.5457 25.8933 37.2591 24.6 37.2591 23.12V14.88C37.2591 13.4 37.5457 12.1067 38.1191 11C38.6924 9.88 39.4991 9.01333 40.5391 8.4C41.5924 7.78667 42.8324 7.48 44.2591 7.48C46.4057 7.48 48.1057 8.16 49.3591 9.52C50.6257 10.8667 51.2591 12.6533 51.2591 14.88V23.12C51.2591 25.3333 50.6257 27.12 49.3591 28.48C48.1057 29.84 46.4057 30.52 44.2591 30.52ZM44.2591 25.52C44.8991 25.52 45.3924 25.34 45.7391 24.98C46.0857 24.6067 46.2591 24.12 46.2591 23.52V14.48C46.2591 13.88 46.0857 13.4 45.7391 13.04C45.3924 12.6667 44.8991 12.48 44.2591 12.48C43.6191 12.48 43.1257 12.6667 42.7791 13.04C42.4324 13.4 42.2591 13.88 42.2591 14.48V23.52C42.2591 24.12 42.4324 24.6067 42.7791 24.98C43.1257 25.34 43.6191 25.52 44.2591 25.52ZM65.7609 30L61.7609 19.2L59.9609 21.68V14.44L64.6009 8H69.8009L65.0409 14.64L70.9609 30H65.7609ZM55.3209 30V-2.38419e-06H60.3209V30H55.3209ZM79.2925 30.52C77.0925 30.52 75.3592 29.84 74.0925 28.48C72.8392 27.12 72.2125 25.3333 72.2125 23.12V22.72H77.2125V23.52C77.2125 24.12 77.3858 24.6067 77.7325 24.98C78.0792 25.34 78.5725 25.52 79.2125 25.52C79.8525 25.52 80.3458 25.3267 80.6925 24.94C81.0392 24.54 81.2125 23.9867 81.2125 23.28C81.2125 22.9067 81.1525 22.6 81.0325 22.36C80.9258 22.1067 80.7258 21.8933 80.4325 21.72C80.1525 21.5467 79.7458 21.4 79.2125 21.28C77.7858 20.96 76.5458 20.6133 75.4925 20.24C74.4525 19.8667 73.6458 19.28 73.0725 18.48C72.4992 17.68 72.2125 16.4867 72.2125 14.9C72.2125 12.5267 72.8392 10.7 74.0925 9.42C75.3592 8.12667 77.0392 7.48 79.1325 7.48C81.3325 7.48 83.0592 8.16 84.3125 9.52C85.5792 10.8667 86.2125 12.6533 86.2125 14.88V15.28H81.2125V14.48C81.2125 13.88 81.0392 13.4 80.6925 13.04C80.3458 12.6667 79.8525 12.48 79.2125 12.48C78.5725 12.48 78.0792 12.6733 77.7325 13.06C77.3858 13.4333 77.2125 13.9733 77.2125 14.68C77.2125 15.04 77.2658 15.3467 77.3725 15.6C77.4925 15.8533 77.6992 16.0667 77.9925 16.24C78.2858 16.4133 78.6925 16.56 79.2125 16.68C80.5858 16.9867 81.7925 17.32 82.8325 17.68C83.8858 18.04 84.7125 18.62 85.3125 19.42C85.9125 20.22 86.2125 21.4333 86.2125 23.06C86.2125 25.4333 85.5858 27.2733 84.3325 28.58C83.0792 29.8733 81.3992 30.52 79.2925 30.52Z" fill="#65558F"/>
</svg>
